<svg width="39" height="39" viewBox="0 0 39 39" fill="none" xmlns="http://www.w3.org/2000/svg">
<circle opacity="0.1" cx="19.5" cy="19.5" r="19.5" fill="#C2AEF9"/>
<path d="M29.207 12.5C29.3946 12.6875 29.4999 12.9418 29.5 13.207V30.5C29.5 30.7652 29.3946 31.0196 29.2071 31.2071C29.0196 31.3946 28.7652 31.5 28.5 31.5H11.5C11.2348 31.5 10.9804 31.3946 10.7929 31.2071C10.6054 31.0196 10.5 30.7652 10.5 30.5V9.5C10.5 9.23479 10.6054 8.98043 10.7929 8.79289C10.9804 8.60536 11.2348 8.5 11.5 8.5H24.793C25.0579 8.49953 25.3122 8.60419 25.5 8.791L29.207 12.5Z" stroke="#3B0CBC" stroke-linecap="round" stroke-linejoin="round"/>
<path d="M14.361 14.8884C13.51 13.4874 15.546 12.1994 16.078 13.6364C16.989 16.1034 18.454 22.7774 15.149 27.3134C14.227 28.5774 12.238 27.3804 13.308 26.0634C14.84 24.2565 16.7502 22.8081 18.9036 21.8207C21.057 20.8334 23.4011 20.3311 25.77 20.3494C27.438 20.4124 27.352 22.7814 25.86 22.5994C23.4784 22.288 21.2012 21.4299 19.2064 20.0922C17.2115 18.7545 15.5532 16.9735 14.361 14.8884V14.8884Z" stroke="#3B0CBC" stroke-linecap="round" stroke-linejoin="round"/>
</svg>
