<svg width="1024" height="180" viewBox="0 0 1024 180" fill="none" xmlns="http://www.w3.org/2000/svg">
<path d="M129.672 0H181.54V154.286H25.9347V102.857H77.8031V51.4286H129.672V0Z" fill="url(#paint0_linear_6103_2132)"/>
<path d="M129.671 0V51.4286H103.737V25.7143L129.671 0Z" fill="#26045D"/>
<path d="M77.8027 102.857H51.8684V77.1429L77.8027 51.4286V102.857Z" fill="#26045D"/>
<path d="M25.9342 154.286H181.54L155.605 180H0V128.571L25.9342 102.857V154.286Z" fill="#26045D"/>
<path d="M381.534 117.898C371.333 117.898 365.559 112.166 365.559 102.229V62.1019H393.853V39.5541H365.174V12.8026H359.785L318.595 55.9873V62.1019H337.457V106.051C337.457 128.79 351.508 142.739 374.413 142.739H394.43V117.898H381.534ZM272.593 79.2994C261.814 77.3885 252.96 75.6688 252.96 68.7898C252.96 62.8662 258.157 59.0446 266.818 59.0446C276.635 59.0446 282.409 63.0573 282.601 71.2739H309.356C309.163 50.6369 292.61 36.6879 267.588 36.6879C242.566 36.6879 225.821 50.2548 225.821 69.7452C225.821 94.0127 246.993 98.4077 263.546 101.274C274.517 102.994 283.564 105.096 283.564 112.166C283.564 119.045 276.442 122.675 268.743 122.675C258.734 122.675 251.613 118.089 251.42 108.917H224.089C224.089 130.892 241.604 145.796 267.588 145.796C293.958 145.796 311.28 132.038 311.28 111.019C311.28 85.7962 289.531 82.3567 272.593 79.2994Z" fill="#26045D"/>
<path d="M495.871 39.5541L492.984 49.2994C483.938 41.465 472.197 36.6879 458.724 36.6879C427.542 36.6879 404.253 60 404.253 91.1465C404.253 122.293 427.542 145.796 458.724 145.796C472.004 145.796 483.553 141.21 492.407 133.376L494.909 142.739H516.851V39.5541H495.871ZM461.033 119.427C444.673 119.427 432.739 107.197 432.739 91.1465C432.739 74.9045 444.673 62.8662 461.033 62.8662C477.394 62.8662 489.327 74.9045 489.327 91.1465C489.327 107.389 477.394 119.427 461.033 119.427Z" fill="#26045D"/>
<path d="M540.224 25.7962H568.133V0H540.224V25.7962ZM540.224 142.739H568.325V39.5541H540.224V142.739Z" fill="#26045D"/>
<path d="M644.572 38.9809C631.098 38.9809 621.859 43.1847 614.353 52.3567L609.348 39.5541H591.448V142.739H619.55V89.2357C619.55 72.4204 625.709 65.3503 641.492 65.3503H653.811V38.9809H644.572Z" fill="#26045D"/>
<path d="M722.568 36.6879C709.672 36.6879 698.124 41.2739 689.27 49.1083L684.458 39.5541H665.98V180H694.082V137.197C701.973 142.739 711.79 145.987 722.568 145.987C753.942 145.987 777.039 122.484 777.039 91.1465C777.039 60 753.942 36.6879 722.568 36.6879ZM720.258 119.427C703.898 119.427 691.964 107.389 691.964 91.1465C691.964 75.0955 703.898 62.8662 720.258 62.8662C736.619 62.8662 748.553 75.0955 748.553 91.1465C748.553 107.389 736.619 119.427 720.258 119.427Z" fill="#26045D"/>
<path d="M878.02 39.5541L875.133 49.2994C866.087 41.465 854.346 36.6879 840.872 36.6879C809.691 36.6879 786.401 60 786.401 91.1465C786.401 122.293 809.691 145.796 840.872 145.796C854.153 145.796 865.702 141.21 874.556 133.376L877.058 142.739H899V39.5541H878.02ZM843.182 119.427C826.821 119.427 814.888 107.197 814.888 91.1465C814.888 74.9045 826.821 62.8662 843.182 62.8662C859.542 62.8662 871.476 74.9045 871.476 91.1465C871.476 107.389 859.542 119.427 843.182 119.427Z" fill="#26045D"/>
<path d="M994.166 39.5541L968.182 103.185L940.465 39.5541H909.861L953.939 134.904L953.554 135.669C947.202 151.338 943.737 154.968 930.072 154.968H920.448V180H931.996C955.286 180 966.257 169.49 978.768 141.401L1024 39.5541H994.166Z" fill="#26045D"/>
<defs>
<linearGradient id="paint0_linear_6103_2132" x1="25.9347" y1="154.286" x2="27.6101" y2="0.0230518" gradientUnits="userSpaceOnUse">
<stop stop-color="#3827FD"/>
<stop offset="0.505208" stop-color="#7747FF"/>
<stop offset="1" stop-color="#E680FF"/>
</linearGradient>
</defs>
</svg>
