<svg width="21" height="21" viewBox="0 0 21 21" fill="none" xmlns="http://www.w3.org/2000/svg">
<path d="M5.79883 10.6382C5.45365 10.6382 5.17383 10.3584 5.17383 10.0132L5.17384 3.76318C5.17384 3.418 5.45366 3.13818 5.79884 3.13818C6.14402 3.13818 6.42384 3.41801 6.42384 3.76318L6.42383 10.0132C6.42383 10.3584 6.144 10.6382 5.79883 10.6382Z" fill="#26045D"/>
<path d="M15.7988 10.6382C15.4536 10.6382 15.1738 10.3584 15.1738 10.0132L15.1738 3.76318C15.1738 3.418 15.4537 3.13818 15.7988 3.13818C16.144 3.13818 16.4238 3.41801 16.4238 3.76318L16.4238 10.0132C16.4238 10.3584 16.144 10.6382 15.7988 10.6382Z" fill="#26045D"/>
<path d="M6.42384 17.5132L6.42383 16.2632C6.42382 15.918 6.144 15.6382 5.79882 15.6382C5.45364 15.6382 5.17382 15.918 5.17383 16.2632L5.17384 17.5132C5.17384 17.8584 5.45367 18.1382 5.79885 18.1382C6.14402 18.1382 6.42384 17.8584 6.42384 17.5132Z" fill="#26045D"/>
<path d="M16.4238 16.2632L16.4238 17.5132C16.4238 17.8584 16.144 18.1382 15.7988 18.1382C15.4537 18.1382 15.1738 17.8584 15.1738 17.5132L15.1738 16.2632C15.1738 15.918 15.4536 15.6382 15.7988 15.6382C16.144 15.6382 16.4238 15.918 16.4238 16.2632Z" fill="#26045D"/>
<path d="M11.4238 5.01318L11.4238 3.76318C11.4238 3.418 11.144 3.13818 10.7988 3.13818C10.4536 3.13819 10.1738 3.41801 10.1738 3.76319L10.1738 5.01319C10.1738 5.35837 10.4537 5.63819 10.7988 5.63818C11.144 5.63818 11.4238 5.35836 11.4238 5.01318Z" fill="#26045D"/>
<path d="M10.7988 18.1382C10.4536 18.1382 10.1738 17.8584 10.1738 17.5132V11.2632C10.1738 10.918 10.4536 10.6382 10.7988 10.6382C11.144 10.6382 11.4238 10.918 11.4238 11.2632V17.5132C11.4238 17.8584 11.144 18.1382 10.7988 18.1382Z" fill="#26045D"/>
<path d="M3.92383 13.1382C3.92383 14.1737 4.76329 15.0132 5.79883 15.0132C6.83436 15.0132 7.67383 14.1737 7.67383 13.1382C7.67383 12.1026 6.83436 11.2632 5.79883 11.2632C4.76329 11.2632 3.92383 12.1026 3.92383 13.1382Z" fill="#26045D"/>
<path d="M10.7988 10.0132C9.76329 10.0132 8.92383 9.17372 8.92383 8.13818C8.92383 7.10265 9.76329 6.26318 10.7988 6.26318C11.8344 6.26318 12.6738 7.10265 12.6738 8.13818C12.6738 9.17372 11.8344 10.0132 10.7988 10.0132Z" fill="#26045D"/>
<path d="M13.9238 13.1382C13.9238 14.1737 14.7633 15.0132 15.7988 15.0132C16.8344 15.0132 17.6738 14.1737 17.6738 13.1382C17.6738 12.1026 16.8344 11.2632 15.7988 11.2632C14.7633 11.2632 13.9238 12.1026 13.9238 13.1382Z" fill="#26045D"/>
</svg>
